mtllib solidos.mtl
s 1
v 0.6212264 -0.337754 -1.1426135
v -0.6212264 -0.337754 1.1426135
v -0.6212264 0.337754 -1.1426135
v 1.1426135 0.6212264 0.337754
v 1.1426135 -0.6212264 -0.337754
v -1.1426135 -0.6212264 0.337754
v -1.1426135 0.6212264 -0.337754
v 0.337754 1.1426135 0.6212264
v 0.337754 -1.1426135 -0.6212264
v -0.337754 -1.1426135 0.6212264
v -0.337754 1.1426135 -0.6212264
v 0.337754 -0.6212264 1.1426135
v 0.337754 0.6212264 -1.1426135
v -0.337754 0.6212264 1.1426135
v -0.337754 -0.6212264 -1.1426135
v 1.1426135 -0.337754 0.6212264
v 1.1426135 0.337754 -0.6212264
v -1.1426135 0.337754 0.6212264
v -1.1426135 -0.337754 -0.6212264
v 0.6212264 -1.1426135 0.337754
v 0.6212264 1.1426135 -0.337754
v -0.6212264 1.1426135 0.337754
v -0.6212264 -1.1426135 -0.337754
v 0.6212264 0.337754 1.1426135
usemtl Cor8
f 12 24 14 2
f 13 1 15 3
f 16 5 17 4
f 19 6 18 7
f 21 11 22 8
f 20 10 23 9
usemtl Cor11
f 24 8 14
f 1 9 15
f 2 10 12
f 3 11 13
f 4 24 16
f 5 1 17
f 6 2 18
f 7 3 19
f 8 4 21
f 9 5 20
f 10 6 23
f 11 7 22
f 12 16 24
f 13 17 1
f 14 18 2
f 15 19 3
f 16 20 5
f 17 21 4
f 18 22 7
f 19 23 6
f 20 12 10
f 21 13 11
f 22 14 8
f 23 15 9
f 8 24 4
f 9 1 5
f 10 2 6
f 11 3 7
f 12 20 16
f 13 21 17
f 14 22 18
f 15 23 19

